<svg width="384" height="355" viewBox="0 0 384 355" fill="none" xmlns="http://www.w3.org/2000/svg">
<g filter="url(#filter0_d_894_32008)">
<g clip-path="url(#clip0_894_32008)">
<rect x="5.34009" y="0.428223" width="378.67" height="347.389" rx="13.1711" fill="white"/>
<path d="M41.8954 46.966C41.2078 46.9613 40.5366 46.842 39.8818 46.6082C39.227 46.3696 38.6377 45.9838 38.1138 45.4505C37.59 44.9127 37.1737 44.1994 36.865 43.3107C36.5563 42.4174 36.4043 41.3112 36.409 39.9922C36.409 38.7621 36.5399 37.6653 36.8018 36.7018C37.0638 35.7382 37.4403 34.9244 37.9314 34.2602C38.4225 33.5914 39.0142 33.0816 39.7064 32.7308C40.4033 32.38 41.1821 32.2046 42.0427 32.2046C42.9454 32.2046 43.7452 32.3823 44.4421 32.7378C45.1437 33.0933 45.7097 33.5797 46.14 34.1971C46.5703 34.8098 46.8369 35.502 46.9398 36.2738H44.379C44.248 35.7219 43.9791 35.2822 43.5722 34.9548C43.1699 34.6227 42.6601 34.4567 42.0427 34.4567C41.0464 34.4567 40.2794 34.8893 39.7415 35.7546C39.2083 36.6199 38.9393 37.8079 38.9347 39.3187H39.0329C39.2621 38.9071 39.5591 38.5539 39.9239 38.2593C40.2887 37.9646 40.7003 37.7378 41.1587 37.5787C41.6217 37.415 42.1105 37.3332 42.625 37.3332C43.4669 37.3332 44.2223 37.5343 44.8911 37.9365C45.5647 38.3388 46.0979 38.893 46.4908 39.5993C46.8837 40.3009 47.0778 41.1054 47.0731 42.0128C47.0778 42.9576 46.8626 43.8065 46.4276 44.5595C45.9926 45.3079 45.3869 45.8972 44.6105 46.3275C43.8341 46.7578 42.929 46.9707 41.8954 46.966ZM41.8813 44.8612C42.3912 44.8612 42.8472 44.7373 43.2494 44.4894C43.6517 44.2415 43.9697 43.9071 44.2036 43.4861C44.4375 43.0652 44.552 42.5927 44.5474 42.0689C44.552 41.5544 44.4398 41.089 44.2106 40.6727C43.9861 40.2565 43.6751 39.9267 43.2775 39.6835C42.8799 39.4403 42.4262 39.3187 41.9164 39.3187C41.5376 39.3187 41.1844 39.3912 40.857 39.5362C40.5296 39.6812 40.2443 39.8823 40.0011 40.1395C39.7579 40.3921 39.5661 40.6868 39.4258 41.0235C39.2901 41.3556 39.22 41.7111 39.2153 42.0899C39.22 42.5904 39.3369 43.0511 39.5661 43.4721C39.7953 43.893 40.111 44.2298 40.5132 44.4824C40.9155 44.7349 41.3715 44.8612 41.8813 44.8612ZM54.4397 46.966C53.5043 46.966 52.6671 46.7906 51.9281 46.4398C51.1891 46.0843 50.6021 45.5979 50.1671 44.9805C49.7368 44.3631 49.5076 43.6568 49.4795 42.8617H52.0052C52.052 43.451 52.3069 43.9328 52.77 44.307C53.233 44.6765 53.7896 44.8612 54.4397 44.8612C54.9496 44.8612 55.4033 44.7443 55.8008 44.5104C56.1984 44.2766 56.5118 43.9515 56.741 43.5352C56.9701 43.1189 57.0824 42.6442 57.0777 42.111C57.0824 41.5684 56.9678 41.0867 56.7339 40.6657C56.5001 40.2448 56.1797 39.915 55.7728 39.6765C55.3658 39.4333 54.8981 39.3117 54.3696 39.3117C53.9393 39.307 53.516 39.3865 53.0997 39.5502C52.6834 39.7139 52.3537 39.9291 52.1105 40.1957L49.7602 39.8098L50.5109 32.401H58.8457V34.5759H52.6647L52.2508 38.3856H52.335C52.6016 38.0722 52.9781 37.8126 53.4645 37.6068C53.951 37.3963 54.4842 37.2911 55.0642 37.2911C55.9341 37.2911 56.7106 37.4969 57.3934 37.9085C58.0763 38.3154 58.6142 38.8767 59.0071 39.5923C59.4 40.3079 59.5964 41.1264 59.5964 42.0478C59.5964 42.9973 59.3766 43.8439 58.9369 44.5876C58.5019 45.3266 57.8962 45.9089 57.1198 46.3345C56.3481 46.7555 55.4547 46.966 54.4397 46.966ZM69.6291 44.0754V43.3177C69.6291 42.7611 69.746 42.249 69.9799 41.7812C70.2184 41.3135 70.5646 40.937 71.0183 40.6517C71.4719 40.3664 72.0215 40.2237 72.667 40.2237C73.3312 40.2237 73.8877 40.3664 74.3368 40.6517C74.7858 40.9323 75.1249 41.3065 75.3541 41.7742C75.5879 42.242 75.7049 42.7565 75.7049 43.3177V44.0754C75.7049 44.632 75.5879 45.1442 75.3541 45.6119C75.1202 46.0796 74.7764 46.4562 74.3227 46.7415C73.8737 47.0268 73.3218 47.1694 72.667 47.1694C72.0122 47.1694 71.4579 47.0268 71.0042 46.7415C70.5505 46.4562 70.2068 46.0796 69.9729 45.6119C69.7437 45.1442 69.6291 44.632 69.6291 44.0754ZM71.4603 43.3177V44.0754C71.4603 44.4449 71.5491 44.784 71.7269 45.0927C71.9046 45.4014 72.218 45.5558 72.667 45.5558C73.1207 45.5558 73.4317 45.4038 73.6001 45.0998C73.7732 44.7911 73.8597 44.4496 73.8597 44.0754V43.3177C73.8597 42.9435 73.7778 42.6021 73.6141 42.2934C73.4504 41.98 73.1347 41.8233 72.667 41.8233C72.2273 41.8233 71.9163 41.98 71.7339 42.2934C71.5515 42.6021 71.4603 42.9435 71.4603 43.3177ZM62.3256 35.8528V35.0951C62.3256 34.5338 62.4449 34.0194 62.6834 33.5516C62.9219 33.0839 63.2681 32.7097 63.7217 32.4291C64.1754 32.1438 64.725 32.0011 65.3705 32.0011C66.03 32.0011 66.5842 32.1438 67.0332 32.4291C67.4869 32.7097 67.8284 33.0839 68.0576 33.5516C68.2867 34.0194 68.4013 34.5338 68.4013 35.0951V35.8528C68.4013 36.4141 68.2844 36.9286 68.0505 37.3963C67.8214 37.8594 67.4799 38.2312 67.0262 38.5118C66.5725 38.7925 66.0206 38.9328 65.3705 38.9328C64.711 38.9328 64.1544 38.7925 63.7007 38.5118C63.2517 38.2312 62.9102 37.857 62.6764 37.3893C62.4425 36.9216 62.3256 36.4094 62.3256 35.8528ZM64.1708 35.0951V35.8528C64.1708 36.227 64.2573 36.5685 64.4303 36.8772C64.6081 37.1812 64.9215 37.3332 65.3705 37.3332C65.8195 37.3332 66.1282 37.1812 66.2966 36.8772C66.4696 36.5685 66.5562 36.227 66.5562 35.8528V35.0951C66.5562 34.7209 66.4743 34.3795 66.3106 34.0708C66.1469 33.7574 65.8335 33.6007 65.3705 33.6007C64.9261 33.6007 64.6151 33.7574 64.4374 34.0708C64.2596 34.3842 64.1708 34.7256 64.1708 35.0951ZM63.1254 46.7695L73.0037 32.401H74.7577L64.8794 46.7695H63.1254ZM91.466 36.351C91.4005 35.7382 91.1246 35.2612 90.6381 34.9197C90.1564 34.5783 89.5296 34.4076 88.7579 34.4076C88.2153 34.4076 87.7499 34.4894 87.3617 34.6531C86.9735 34.8168 86.6765 35.039 86.4707 35.3196C86.2649 35.6003 86.1597 35.9207 86.155 36.2808C86.155 36.5801 86.2228 36.8397 86.3585 37.0596C86.4988 37.2794 86.6882 37.4665 86.9267 37.6208C87.1653 37.7705 87.4295 37.8968 87.7195 37.9997C88.0095 38.1026 88.3019 38.1891 88.5965 38.2593L89.9436 38.596C90.4861 38.7223 91.0076 38.893 91.5081 39.1082C92.0133 39.3234 92.4646 39.5946 92.8622 39.922C93.2644 40.2494 93.5825 40.6447 93.8163 41.1077C94.0502 41.5708 94.1671 42.1133 94.1671 42.7354C94.1671 43.5773 93.952 44.3187 93.5217 44.9594C93.0914 45.5955 92.4693 46.0937 91.6554 46.4538C90.8463 46.8093 89.8664 46.987 88.7158 46.987C87.5979 46.987 86.6274 46.814 85.8042 46.4678C84.9857 46.1217 84.3449 45.6166 83.8819 44.9524C83.4235 44.2883 83.1756 43.4791 83.1382 42.5249H85.699C85.7364 43.0254 85.8907 43.4417 86.162 43.7738C86.4333 44.1058 86.7864 44.3537 87.2214 44.5174C87.6611 44.6811 88.1522 44.763 88.6947 44.763C89.2607 44.763 89.7565 44.6788 90.1821 44.5104C90.6124 44.3374 90.9492 44.0988 91.1924 43.7948C91.4356 43.4861 91.5596 43.126 91.5642 42.7144C91.5596 42.3402 91.4496 42.0315 91.2345 41.7883C91.0193 41.5404 90.7177 41.3346 90.3294 41.1709C89.9459 41.0025 89.4969 40.8528 88.9824 40.7218L87.3477 40.3009C86.1644 39.9969 85.2289 39.5362 84.5413 38.9188C83.8585 38.2967 83.517 37.4712 83.517 36.4422C83.517 35.5956 83.7462 34.8542 84.2046 34.2181C84.6676 33.582 85.2967 33.0886 86.0919 32.7378C86.887 32.3823 87.7874 32.2046 88.793 32.2046C89.8126 32.2046 90.706 32.3823 91.473 32.7378C92.2448 33.0886 92.8505 33.5774 93.2901 34.2041C93.7298 34.8262 93.9567 35.5418 93.9707 36.351H91.466ZM101.076 46.98C100 46.98 99.0765 46.7438 98.3047 46.2714C97.5377 45.799 96.946 45.1465 96.5297 44.314C96.1181 43.4767 95.9123 42.5132 95.9123 41.4234C95.9123 40.329 96.1228 39.3631 96.5438 38.5259C96.9647 37.684 97.5587 37.0292 98.3258 36.5614C99.0975 36.089 100.01 35.8528 101.062 35.8528C101.937 35.8528 102.711 36.0142 103.384 36.3369C104.062 36.655 104.603 37.1063 105.005 37.691C105.407 38.271 105.636 38.9492 105.692 39.7256H103.265C103.167 39.2064 102.933 38.7738 102.563 38.4277C102.199 38.0769 101.71 37.9015 101.097 37.9015C100.578 37.9015 100.122 38.0418 99.729 38.3224C99.3361 38.5984 99.0297 38.9959 98.8099 39.5151C98.5947 40.0343 98.4871 40.6564 98.4871 41.3813C98.4871 42.1157 98.5947 42.7471 98.8099 43.2756C99.025 43.7995 99.3267 44.2041 99.7149 44.4894C100.108 44.77 100.569 44.9103 101.097 44.9103C101.471 44.9103 101.806 44.8402 102.1 44.6998C102.4 44.5549 102.65 44.3467 102.851 44.0754C103.052 43.8042 103.19 43.4744 103.265 43.0862H105.692C105.632 43.8486 105.407 44.5245 105.019 45.1138C104.631 45.6984 104.102 46.1568 103.433 46.4889C102.764 46.8163 101.979 46.98 101.076 46.98ZM112.479 46.98C111.426 46.98 110.514 46.7485 109.742 46.2854C108.971 45.8224 108.372 45.1746 107.946 44.342C107.525 43.5095 107.315 42.5366 107.315 41.4234C107.315 40.3103 107.525 39.335 107.946 38.4978C108.372 37.6606 108.971 37.0105 109.742 36.5474C110.514 36.0844 111.426 35.8528 112.479 35.8528C113.531 35.8528 114.443 36.0844 115.215 36.5474C115.986 37.0105 116.583 37.6606 117.004 38.4978C117.429 39.335 117.642 40.3103 117.642 41.4234C117.642 42.5366 117.429 43.5095 117.004 44.342C116.583 45.1746 115.986 45.8224 115.215 46.2854C114.443 46.7485 113.531 46.98 112.479 46.98ZM112.493 44.9454C113.063 44.9454 113.54 44.7887 113.924 44.4753C114.307 44.1573 114.593 43.7317 114.78 43.1985C114.972 42.6652 115.067 42.0712 115.067 41.4164C115.067 40.7569 114.972 40.1606 114.78 39.6274C114.593 39.0895 114.307 38.6615 113.924 38.3435C113.54 38.0254 113.063 37.8664 112.493 37.8664C111.908 37.8664 111.421 38.0254 111.033 38.3435C110.65 38.6615 110.362 39.0895 110.17 39.6274C109.983 40.1606 109.89 40.7569 109.89 41.4164C109.89 42.0712 109.983 42.6652 110.17 43.1985C110.362 43.7317 110.65 44.1573 111.033 44.4753C111.421 44.7887 111.908 44.9454 112.493 44.9454ZM119.798 46.7695V35.9932H122.26V37.7892H122.373C122.569 37.1671 122.906 36.6877 123.383 36.351C123.865 36.0095 124.414 35.8388 125.032 35.8388C125.172 35.8388 125.329 35.8458 125.502 35.8598C125.68 35.8692 125.827 35.8856 125.944 35.909V38.2452C125.836 38.2078 125.665 38.1751 125.432 38.147C125.202 38.1143 124.98 38.0979 124.765 38.0979C124.302 38.0979 123.886 38.1985 123.516 38.3996C123.151 38.596 122.864 38.8697 122.653 39.2205C122.443 39.5712 122.338 39.9758 122.338 40.4342V46.7695H119.798ZM131.958 46.98C130.878 46.98 129.945 46.7555 129.159 46.3065C128.378 45.8528 127.777 45.212 127.356 44.3841C126.935 43.5516 126.724 42.5717 126.724 41.4445C126.724 40.336 126.935 39.3631 127.356 38.5259C127.781 37.684 128.375 37.0292 129.138 36.5614C129.9 36.089 130.796 35.8528 131.825 35.8528C132.489 35.8528 133.116 35.9604 133.705 36.1756C134.299 36.386 134.823 36.7134 135.277 37.1578C135.735 37.6021 136.095 38.1681 136.357 38.8556C136.619 39.5385 136.75 40.3523 136.75 41.2972V42.0759H127.917V40.364H134.315C134.311 39.8776 134.206 39.445 134 39.0661C133.794 38.6826 133.506 38.3809 133.137 38.1611C132.772 37.9412 132.346 37.8313 131.86 37.8313C131.341 37.8313 130.885 37.9576 130.492 38.2102C130.099 38.4581 129.793 38.7855 129.573 39.1924C129.358 39.5946 129.248 40.0366 129.243 40.5184V42.0128C129.243 42.6395 129.358 43.1774 129.587 43.6264C129.816 44.0708 130.136 44.4122 130.548 44.6507C130.96 44.8846 131.441 45.0015 131.993 45.0015C132.363 45.0015 132.697 44.9501 132.996 44.8472C133.296 44.7396 133.555 44.5829 133.775 44.3771C133.995 44.1713 134.161 43.9164 134.273 43.6124L136.645 43.879C136.495 44.5057 136.21 45.053 135.789 45.5207C135.373 45.9838 134.839 46.3439 134.189 46.6012C133.539 46.8537 132.795 46.98 131.958 46.98Z" fill="#161616"/>
<path d="M33.4223 111.625V97.2565H35.1622V110.082H41.8414V111.625H33.4223ZM48.6888 111.85C47.716 111.85 46.8624 111.618 46.1281 111.155C45.3984 110.692 44.8278 110.044 44.4162 109.212C44.0093 108.379 43.8058 107.406 43.8058 106.293C43.8058 105.17 44.0093 104.191 44.4162 103.353C44.8278 102.516 45.3984 101.866 46.1281 101.403C46.8624 100.94 47.716 100.708 48.6888 100.708C49.6617 100.708 50.513 100.94 51.2426 101.403C51.977 101.866 52.5476 102.516 52.9545 103.353C53.3661 104.191 53.5719 105.17 53.5719 106.293C53.5719 107.406 53.3661 108.379 52.9545 109.212C52.5476 110.044 51.977 110.692 51.2426 111.155C50.513 111.618 49.6617 111.85 48.6888 111.85ZM48.6888 110.362C49.4279 110.362 50.0359 110.173 50.513 109.794C50.9901 109.415 51.3432 108.917 51.5724 108.299C51.8016 107.682 51.9161 107.013 51.9161 106.293C51.9161 105.573 51.8016 104.901 51.5724 104.279C51.3432 103.657 50.9901 103.155 50.513 102.771C50.0359 102.387 49.4279 102.196 48.6888 102.196C47.9498 102.196 47.3418 102.387 46.8647 102.771C46.3876 103.155 46.0345 103.657 45.8053 104.279C45.5761 104.901 45.4615 105.573 45.4615 106.293C45.4615 107.013 45.5761 107.682 45.8053 108.299C46.0345 108.917 46.3876 109.415 46.8647 109.794C47.3418 110.173 47.9498 110.362 48.6888 110.362ZM60.4773 111.85C59.467 111.85 58.597 111.611 57.8674 111.134C57.1377 110.657 56.5764 110 56.1836 109.162C55.7907 108.325 55.5942 107.369 55.5942 106.293C55.5942 105.198 55.7953 104.233 56.1976 103.395C56.6045 102.553 57.1705 101.896 57.8954 101.424C58.6251 100.947 59.4763 100.708 60.4492 100.708C61.2069 100.708 61.8898 100.849 62.4978 101.129C63.1059 101.41 63.604 101.803 63.9922 102.308C64.3804 102.813 64.6213 103.402 64.7149 104.076H63.0591C62.9328 103.585 62.6522 103.15 62.2172 102.771C61.7869 102.387 61.2069 102.196 60.4773 102.196C59.8318 102.196 59.2659 102.364 58.7794 102.701C58.2977 103.033 57.9212 103.503 57.6499 104.111C57.3833 104.714 57.25 105.423 57.25 106.237C57.25 107.069 57.3809 107.794 57.6429 108.412C57.9095 109.029 58.2836 109.509 58.7654 109.85C59.2518 110.191 59.8225 110.362 60.4773 110.362C60.9076 110.362 61.2981 110.287 61.6489 110.138C61.9997 109.988 62.2967 109.773 62.5399 109.492C62.7832 109.212 62.9562 108.875 63.0591 108.482H64.7149C64.6213 109.118 64.3898 109.691 64.0203 110.201C63.6555 110.706 63.1714 111.108 62.568 111.408C61.9693 111.702 61.2724 111.85 60.4773 111.85ZM70.3065 111.878C69.6236 111.878 69.0039 111.749 68.4473 111.492C67.8907 111.23 67.4487 110.853 67.1213 110.362C66.7939 109.866 66.6302 109.268 66.6302 108.566C66.6302 107.949 66.7518 107.448 66.995 107.065C67.2382 106.676 67.5633 106.372 67.9702 106.153C68.3771 105.933 68.8262 105.769 69.3173 105.662C69.8131 105.549 70.3112 105.46 70.8116 105.395C71.4665 105.311 71.9973 105.248 72.4043 105.205C72.8159 105.159 73.1152 105.082 73.3023 104.974C73.4941 104.866 73.5899 104.679 73.5899 104.413V104.357C73.5899 103.664 73.4005 103.126 73.0216 102.743C72.6475 102.359 72.0792 102.168 71.3168 102.168C70.5263 102.168 69.9066 102.341 69.4576 102.687C69.0086 103.033 68.6929 103.402 68.5104 103.795L66.9389 103.234C67.2195 102.579 67.5937 102.069 68.0614 101.705C68.5338 101.335 69.0483 101.078 69.6049 100.933C70.1662 100.783 70.7181 100.708 71.2607 100.708C71.6068 100.708 72.0043 100.75 72.4534 100.835C72.9071 100.914 73.3444 101.08 73.7653 101.333C74.191 101.585 74.5441 101.966 74.8247 102.476C75.1054 102.986 75.2457 103.669 75.2457 104.525V111.625H73.5899V110.166H73.5057C73.3935 110.4 73.2064 110.65 72.9445 110.916C72.6825 111.183 72.3341 111.41 71.8991 111.597C71.4641 111.784 70.9333 111.878 70.3065 111.878ZM70.5591 110.39C71.2139 110.39 71.7658 110.262 72.2148 110.004C72.6685 109.747 73.01 109.415 73.2391 109.008C73.473 108.601 73.5899 108.173 73.5899 107.724V106.209C73.5198 106.293 73.3654 106.37 73.1269 106.44C72.893 106.506 72.6217 106.564 72.313 106.616C72.009 106.662 71.712 106.705 71.422 106.742C71.1367 106.775 70.9052 106.803 70.7275 106.826C70.2972 106.882 69.8949 106.973 69.5207 107.1C69.1512 107.221 68.8519 107.406 68.6227 107.654C68.3982 107.897 68.2859 108.229 68.2859 108.65C68.2859 109.226 68.4988 109.661 68.9244 109.955C69.3547 110.245 69.8996 110.39 70.5591 110.39ZM82.9544 100.849V102.252H77.3697V100.849H82.9544ZM78.9974 98.2668H80.6532V108.538C80.6532 109.006 80.721 109.357 80.8566 109.59C80.9969 109.82 81.1747 109.974 81.3898 110.053C81.6097 110.128 81.8412 110.166 82.0844 110.166C82.2668 110.166 82.4165 110.156 82.5334 110.138C82.6503 110.114 82.7439 110.096 82.8141 110.082L83.1508 111.569C83.0386 111.611 82.8819 111.653 82.6808 111.695C82.4796 111.742 82.2247 111.765 81.916 111.765C81.4483 111.765 80.9899 111.665 80.5409 111.464C80.0966 111.263 79.7271 110.956 79.4324 110.545C79.1424 110.133 78.9974 109.614 78.9974 108.987V98.2668ZM85.445 111.625V100.849H87.1007V111.625H85.445ZM86.2869 99.0526C85.9642 99.0526 85.6859 98.9426 85.452 98.7228C85.2228 98.503 85.1082 98.2387 85.1082 97.93C85.1082 97.6213 85.2228 97.3571 85.452 97.1372C85.6859 96.9174 85.9642 96.8075 86.2869 96.8075C86.6096 96.8075 86.8856 96.9174 87.1148 97.1372C87.3486 97.3571 87.4656 97.6213 87.4656 97.93C87.4656 98.2387 87.3486 98.503 87.1148 98.7228C86.8856 98.9426 86.6096 99.0526 86.2869 99.0526ZM94.5113 111.85C93.5384 111.85 92.6848 111.618 91.9505 111.155C91.2208 110.692 90.6502 110.044 90.2386 109.212C89.8317 108.379 89.6282 107.406 89.6282 106.293C89.6282 105.17 89.8317 104.191 90.2386 103.353C90.6502 102.516 91.2208 101.866 91.9505 101.403C92.6848 100.94 93.5384 100.708 94.5113 100.708C95.4841 100.708 96.3354 100.94 97.065 101.403C97.7994 101.866 98.37 102.516 98.7769 103.353C99.1885 104.191 99.3943 105.17 99.3943 106.293C99.3943 107.406 99.1885 108.379 98.7769 109.212C98.37 110.044 97.7994 110.692 97.065 111.155C96.3354 111.618 95.4841 111.85 94.5113 111.85ZM94.5113 110.362C95.2503 110.362 95.8583 110.173 96.3354 109.794C96.8125 109.415 97.1656 108.917 97.3948 108.299C97.624 107.682 97.7386 107.013 97.7386 106.293C97.7386 105.573 97.624 104.901 97.3948 104.279C97.1656 103.657 96.8125 103.155 96.3354 102.771C95.8583 102.387 95.2503 102.196 94.5113 102.196C93.7723 102.196 93.1642 102.387 92.6871 102.771C92.2101 103.155 91.8569 103.657 91.6277 104.279C91.3986 104.901 91.284 105.573 91.284 106.293C91.284 107.013 91.3986 107.682 91.6277 108.299C91.8569 108.917 92.2101 109.415 92.6871 109.794C93.1642 110.173 93.7723 110.362 94.5113 110.362ZM103.578 105.142V111.625H101.922V100.849H103.521V102.532H103.662C103.914 101.985 104.298 101.546 104.812 101.213C105.327 100.877 105.991 100.708 106.805 100.708C107.534 100.708 108.173 100.858 108.72 101.157C109.267 101.452 109.693 101.901 109.997 102.504C110.301 103.103 110.453 103.861 110.453 104.778V111.625H108.797V104.89C108.797 104.043 108.578 103.384 108.138 102.911C107.698 102.434 107.095 102.196 106.328 102.196C105.799 102.196 105.327 102.31 104.911 102.539C104.499 102.769 104.174 103.103 103.935 103.543C103.697 103.982 103.578 104.516 103.578 105.142Z" fill="#8D8D8D"/>
<path d="M220.627 104.441C220.627 105.956 220.354 107.266 219.806 108.37C219.259 109.473 218.508 110.325 217.554 110.923C216.6 111.522 215.51 111.821 214.285 111.821C213.059 111.821 211.97 111.522 211.015 110.923C210.061 110.325 209.311 109.473 208.763 108.37C208.216 107.266 207.943 105.956 207.943 104.441C207.943 102.925 208.216 101.616 208.763 100.512C209.311 99.408 210.061 98.5568 211.015 97.9581C211.97 97.3594 213.059 97.06 214.285 97.06C215.51 97.06 216.6 97.3594 217.554 97.9581C218.508 98.5568 219.259 99.408 219.806 100.512C220.354 101.616 220.627 102.925 220.627 104.441ZM218.943 104.441C218.943 103.197 218.735 102.147 218.319 101.291C217.907 100.435 217.348 99.7869 216.642 99.3472C215.941 98.9076 215.155 98.6877 214.285 98.6877C213.415 98.6877 212.627 98.9076 211.921 99.3472C211.219 99.7869 210.66 100.435 210.244 101.291C209.832 102.147 209.626 103.197 209.626 104.441C209.626 105.685 209.832 106.735 210.244 107.591C210.66 108.447 211.219 109.095 211.921 109.534C212.627 109.974 213.415 110.194 214.285 110.194C215.155 110.194 215.941 109.974 216.642 109.534C217.348 109.095 217.907 108.447 218.319 107.591C218.735 106.735 218.943 105.685 218.943 104.441ZM224.984 105.142V111.625H223.328V100.849H224.928V102.532H225.068C225.321 101.985 225.704 101.546 226.219 101.213C226.733 100.877 227.398 100.708 228.211 100.708C228.941 100.708 229.579 100.858 230.127 101.157C230.674 101.452 231.1 101.901 231.404 102.504C231.708 103.103 231.86 103.861 231.86 104.778V111.625H230.204V104.89C230.204 104.043 229.984 103.384 229.544 102.911C229.105 102.434 228.501 102.196 227.734 102.196C227.206 102.196 226.733 102.31 226.317 102.539C225.905 102.769 225.58 103.103 225.342 103.543C225.103 103.982 224.984 104.516 224.984 105.142ZM239.572 100.849V102.252H233.987V100.849H239.572ZM235.615 98.2668H237.271V108.538C237.271 109.006 237.338 109.357 237.474 109.59C237.614 109.82 237.792 109.974 238.007 110.053C238.227 110.128 238.459 110.166 238.702 110.166C238.884 110.166 239.034 110.156 239.151 110.138C239.268 110.114 239.361 110.096 239.432 110.082L239.768 111.569C239.656 111.611 239.499 111.653 239.298 111.695C239.097 111.742 238.842 111.765 238.533 111.765C238.066 111.765 237.607 111.665 237.158 111.464C236.714 111.263 236.345 110.956 236.05 110.545C235.76 110.133 235.615 109.614 235.615 108.987V98.2668ZM245.234 111.878C244.551 111.878 243.931 111.749 243.374 111.492C242.818 111.23 242.376 110.853 242.048 110.362C241.721 109.866 241.557 109.268 241.557 108.566C241.557 107.949 241.679 107.448 241.922 107.065C242.165 106.676 242.49 106.372 242.897 106.153C243.304 105.933 243.753 105.769 244.244 105.662C244.74 105.549 245.238 105.46 245.739 105.395C246.394 105.311 246.924 105.248 247.331 105.205C247.743 105.159 248.042 105.082 248.229 104.974C248.421 104.866 248.517 104.679 248.517 104.413V104.357C248.517 103.664 248.328 103.126 247.949 102.743C247.575 102.359 247.006 102.168 246.244 102.168C245.453 102.168 244.834 102.341 244.385 102.687C243.936 103.033 243.62 103.402 243.438 103.795L241.866 103.234C242.147 102.579 242.521 102.069 242.989 101.705C243.461 101.335 243.975 101.078 244.532 100.933C245.093 100.783 245.645 100.708 246.188 100.708C246.534 100.708 246.931 100.75 247.38 100.835C247.834 100.914 248.272 101.08 248.692 101.333C249.118 101.585 249.471 101.966 249.752 102.476C250.032 102.986 250.173 103.669 250.173 104.525V111.625H248.517V110.166H248.433C248.321 110.4 248.134 110.65 247.872 110.916C247.61 111.183 247.261 111.41 246.826 111.597C246.391 111.784 245.86 111.878 245.234 111.878ZM245.486 110.39C246.141 110.39 246.693 110.262 247.142 110.004C247.596 109.747 247.937 109.415 248.166 109.008C248.4 108.601 248.517 108.173 248.517 107.724V106.209C248.447 106.293 248.293 106.37 248.054 106.44C247.82 106.506 247.549 106.564 247.24 106.616C246.936 106.662 246.639 106.705 246.349 106.742C246.064 106.775 245.832 106.803 245.655 106.826C245.224 106.882 244.822 106.973 244.448 107.1C244.078 107.221 243.779 107.406 243.55 107.654C243.325 107.897 243.213 108.229 243.213 108.65C243.213 109.226 243.426 109.661 243.852 109.955C244.282 110.245 244.827 110.39 245.486 110.39ZM253.195 111.625V100.849H254.795V102.476H254.907C255.103 101.943 255.459 101.51 255.973 101.178C256.488 100.846 257.068 100.68 257.713 100.68C257.835 100.68 257.987 100.683 258.169 100.687C258.352 100.692 258.49 100.699 258.583 100.708V102.392C258.527 102.378 258.398 102.357 258.197 102.329C258.001 102.296 257.793 102.28 257.573 102.28C257.049 102.28 256.581 102.39 256.17 102.61C255.763 102.825 255.44 103.124 255.201 103.508C254.968 103.886 254.851 104.319 254.851 104.806V111.625H253.195ZM260.546 111.625V100.849H262.202V111.625H260.546ZM261.388 99.0526C261.065 99.0526 260.787 98.9426 260.553 98.7228C260.324 98.503 260.209 98.2387 260.209 97.93C260.209 97.6213 260.324 97.3571 260.553 97.1372C260.787 96.9174 261.065 96.8075 261.388 96.8075C261.71 96.8075 261.986 96.9174 262.216 97.1372C262.449 97.3571 262.566 97.6213 262.566 97.93C262.566 98.2387 262.449 98.503 262.216 98.7228C261.986 98.9426 261.71 99.0526 261.388 99.0526ZM269.612 111.85C268.639 111.85 267.786 111.618 267.051 111.155C266.322 110.692 265.751 110.044 265.339 109.212C264.932 108.379 264.729 107.406 264.729 106.293C264.729 105.17 264.932 104.191 265.339 103.353C265.751 102.516 266.322 101.866 267.051 101.403C267.786 100.94 268.639 100.708 269.612 100.708C270.585 100.708 271.436 100.94 272.166 101.403C272.9 101.866 273.471 102.516 273.878 103.353C274.289 104.191 274.495 105.17 274.495 106.293C274.495 107.406 274.289 108.379 273.878 109.212C273.471 110.044 272.9 110.692 272.166 111.155C271.436 111.618 270.585 111.85 269.612 111.85ZM269.612 110.362C270.351 110.362 270.959 110.173 271.436 109.794C271.913 109.415 272.266 108.917 272.496 108.299C272.725 107.682 272.839 107.013 272.839 106.293C272.839 105.573 272.725 104.901 272.496 104.279C272.266 103.657 271.913 103.155 271.436 102.771C270.959 102.387 270.351 102.196 269.612 102.196C268.873 102.196 268.265 102.387 267.788 102.771C267.311 103.155 266.958 103.657 266.729 104.279C266.499 104.901 266.385 105.573 266.385 106.293C266.385 107.013 266.499 107.682 266.729 108.299C266.958 108.917 267.311 109.415 267.788 109.794C268.265 110.173 268.873 110.362 269.612 110.362ZM279.492 109.661L279.38 110.418C279.3 110.951 279.179 111.522 279.015 112.13C278.856 112.738 278.69 113.311 278.517 113.849C278.344 114.387 278.201 114.815 278.089 115.133H276.826C276.887 114.834 276.966 114.438 277.065 113.947C277.163 113.456 277.261 112.907 277.359 112.299C277.462 111.695 277.546 111.078 277.612 110.446L277.696 109.661H279.492ZM299.903 101.747H298.163C298.06 101.246 297.88 100.807 297.623 100.428C297.37 100.049 297.062 99.7308 296.697 99.4735C296.337 99.2116 295.937 99.0151 295.497 98.8842C295.057 98.7532 294.599 98.6877 294.122 98.6877C293.252 98.6877 292.464 98.9076 291.758 99.3472C291.056 99.7869 290.497 100.435 290.081 101.291C289.669 102.147 289.463 103.197 289.463 104.441C289.463 105.685 289.669 106.735 290.081 107.591C290.497 108.447 291.056 109.095 291.758 109.534C292.464 109.974 293.252 110.194 294.122 110.194C294.599 110.194 295.057 110.128 295.497 109.997C295.937 109.866 296.337 109.672 296.697 109.415C297.062 109.153 297.37 108.833 297.623 108.454C297.88 108.07 298.06 107.631 298.163 107.135H299.903C299.772 107.869 299.534 108.526 299.187 109.106C298.841 109.686 298.411 110.18 297.897 110.587C297.382 110.989 296.804 111.295 296.164 111.506C295.528 111.716 294.847 111.821 294.122 111.821C292.897 111.821 291.807 111.522 290.853 110.923C289.898 110.325 289.148 109.473 288.6 108.37C288.053 107.266 287.78 105.956 287.78 104.441C287.78 102.925 288.053 101.616 288.6 100.512C289.148 99.408 289.898 98.5568 290.853 97.9581C291.807 97.3594 292.897 97.06 294.122 97.06C294.847 97.06 295.528 97.1653 296.164 97.3758C296.804 97.5862 297.382 97.8949 297.897 98.3019C298.411 98.7041 298.841 99.1952 299.187 99.7752C299.534 100.35 299.772 101.008 299.903 101.747ZM305.661 111.878C304.978 111.878 304.359 111.749 303.802 111.492C303.246 111.23 302.804 110.853 302.476 110.362C302.149 109.866 301.985 109.268 301.985 108.566C301.985 107.949 302.107 107.448 302.35 107.065C302.593 106.676 302.918 106.372 303.325 106.153C303.732 105.933 304.181 105.769 304.672 105.662C305.168 105.549 305.666 105.46 306.166 105.395C306.821 105.311 307.352 105.248 307.759 105.205C308.171 105.159 308.47 105.082 308.657 104.974C308.849 104.866 308.945 104.679 308.945 104.413V104.357C308.945 103.664 308.755 103.126 308.376 102.743C308.002 102.359 307.434 102.168 306.672 102.168C305.881 102.168 305.261 102.341 304.812 102.687C304.363 103.033 304.048 103.402 303.865 103.795L302.294 103.234C302.574 102.579 302.949 102.069 303.416 101.705C303.889 101.335 304.403 101.078 304.96 100.933C305.521 100.783 306.073 100.708 306.616 100.708C306.962 100.708 307.359 100.75 307.808 100.835C308.262 100.914 308.699 101.08 309.12 101.333C309.546 101.585 309.899 101.966 310.18 102.476C310.46 102.986 310.601 103.669 310.601 104.525V111.625H308.945V110.166H308.861C308.748 110.4 308.561 110.65 308.299 110.916C308.037 111.183 307.689 111.41 307.254 111.597C306.819 111.784 306.288 111.878 305.661 111.878ZM305.914 110.39C306.569 110.39 307.121 110.262 307.57 110.004C308.023 109.747 308.365 109.415 308.594 109.008C308.828 108.601 308.945 108.173 308.945 107.724V106.209C308.875 106.293 308.72 106.37 308.482 106.44C308.248 106.506 307.977 106.564 307.668 106.616C307.364 106.662 307.067 106.705 306.777 106.742C306.492 106.775 306.26 106.803 306.082 106.826C305.652 106.882 305.25 106.973 304.876 107.1C304.506 107.221 304.207 107.406 303.978 107.654C303.753 107.897 303.641 108.229 303.641 108.65C303.641 109.226 303.854 109.661 304.279 109.955C304.71 110.245 305.254 110.39 305.914 110.39ZM315.278 105.142V111.625H313.623V100.849H315.222V102.532H315.363C315.615 101.985 315.999 101.546 316.513 101.213C317.028 100.877 317.692 100.708 318.506 100.708C319.235 100.708 319.874 100.858 320.421 101.157C320.968 101.452 321.394 101.901 321.698 102.504C322.002 103.103 322.154 103.861 322.154 104.778V111.625H320.498V104.89C320.498 104.043 320.278 103.384 319.839 102.911C319.399 102.434 318.796 102.196 318.029 102.196C317.5 102.196 317.028 102.31 316.611 102.539C316.2 102.769 315.875 103.103 315.636 103.543C315.398 103.982 315.278 104.516 315.278 105.142ZM328.351 111.878C327.668 111.878 327.048 111.749 326.491 111.492C325.935 111.23 325.493 110.853 325.165 110.362C324.838 109.866 324.674 109.268 324.674 108.566C324.674 107.949 324.796 107.448 325.039 107.065C325.282 106.676 325.607 106.372 326.014 106.153C326.421 105.933 326.87 105.769 327.361 105.662C327.857 105.549 328.355 105.46 328.856 105.395C329.511 105.311 330.042 105.248 330.448 105.205C330.86 105.159 331.159 105.082 331.346 104.974C331.538 104.866 331.634 104.679 331.634 104.413V104.357C331.634 103.664 331.445 103.126 331.066 102.743C330.692 102.359 330.123 102.168 329.361 102.168C328.571 102.168 327.951 102.341 327.502 102.687C327.053 103.033 326.737 103.402 326.555 103.795L324.983 103.234C325.264 102.579 325.638 102.069 326.106 101.705C326.578 101.335 327.093 101.078 327.649 100.933C328.21 100.783 328.762 100.708 329.305 100.708C329.651 100.708 330.049 100.75 330.498 100.835C330.951 100.914 331.389 101.08 331.81 101.333C332.235 101.585 332.588 101.966 332.869 102.476C333.15 102.986 333.29 103.669 333.29 104.525V111.625H331.634V110.166H331.55C331.438 110.4 331.251 110.65 330.989 110.916C330.727 111.183 330.378 111.41 329.943 111.597C329.508 111.784 328.977 111.878 328.351 111.878ZM328.603 110.39C329.258 110.39 329.81 110.262 330.259 110.004C330.713 109.747 331.054 109.415 331.283 109.008C331.517 108.601 331.634 108.173 331.634 107.724V106.209C331.564 106.293 331.41 106.37 331.171 106.44C330.937 106.506 330.666 106.564 330.357 106.616C330.053 106.662 329.756 106.705 329.466 106.742C329.181 106.775 328.949 106.803 328.772 106.826C328.341 106.882 327.939 106.973 327.565 107.1C327.195 107.221 326.896 107.406 326.667 107.654C326.442 107.897 326.33 108.229 326.33 108.65C326.33 109.226 326.543 109.661 326.969 109.955C327.399 110.245 327.944 110.39 328.603 110.39ZM340.381 111.85C339.483 111.85 338.69 111.623 338.003 111.169C337.315 110.711 336.777 110.065 336.389 109.233C336.001 108.395 335.807 107.406 335.807 106.265C335.807 105.133 336.001 104.151 336.389 103.318C336.777 102.486 337.318 101.843 338.01 101.389C338.702 100.935 339.502 100.708 340.409 100.708C341.111 100.708 341.665 100.825 342.072 101.059C342.484 101.288 342.797 101.55 343.012 101.845C343.232 102.135 343.403 102.373 343.524 102.56H343.665V97.2565H345.32V111.625H343.721V109.969H343.524C343.403 110.166 343.23 110.414 343.005 110.713C342.781 111.008 342.46 111.272 342.044 111.506C341.628 111.735 341.073 111.85 340.381 111.85ZM340.606 110.362C341.27 110.362 341.831 110.189 342.289 109.843C342.748 109.492 343.096 109.008 343.335 108.391C343.573 107.769 343.693 107.051 343.693 106.237C343.693 105.432 343.576 104.728 343.342 104.125C343.108 103.517 342.762 103.045 342.303 102.708C341.845 102.366 341.279 102.196 340.606 102.196C339.904 102.196 339.319 102.376 338.852 102.736C338.389 103.091 338.04 103.575 337.806 104.188C337.577 104.796 337.463 105.479 337.463 106.237C337.463 107.004 337.579 107.701 337.813 108.328C338.052 108.95 338.403 109.445 338.866 109.815C339.333 110.18 339.913 110.362 340.606 110.362ZM351.754 111.878C351.071 111.878 350.451 111.749 349.895 111.492C349.338 111.23 348.896 110.853 348.569 110.362C348.241 109.866 348.078 109.268 348.078 108.566C348.078 107.949 348.199 107.448 348.442 107.065C348.686 106.676 349.011 106.372 349.418 106.153C349.825 105.933 350.274 105.769 350.765 105.662C351.26 105.549 351.759 105.46 352.259 105.395C352.914 105.311 353.445 105.248 353.852 105.205C354.263 105.159 354.563 105.082 354.75 104.974C354.941 104.866 355.037 104.679 355.037 104.413V104.357C355.037 103.664 354.848 103.126 354.469 102.743C354.095 102.359 353.527 102.168 352.764 102.168C351.974 102.168 351.354 102.341 350.905 102.687C350.456 103.033 350.14 103.402 349.958 103.795L348.386 103.234C348.667 102.579 349.041 102.069 349.509 101.705C349.981 101.335 350.496 101.078 351.052 100.933C351.614 100.783 352.165 100.708 352.708 100.708C353.054 100.708 353.452 100.75 353.901 100.835C354.354 100.914 354.792 101.08 355.213 101.333C355.638 101.585 355.991 101.966 356.272 102.476C356.553 102.986 356.693 103.669 356.693 104.525V111.625H355.037V110.166H354.953C354.841 110.4 354.654 110.65 354.392 110.916C354.13 111.183 353.781 111.41 353.346 111.597C352.911 111.784 352.381 111.878 351.754 111.878ZM352.006 110.39C352.661 110.39 353.213 110.262 353.662 110.004C354.116 109.747 354.457 109.415 354.687 109.008C354.92 108.601 355.037 108.173 355.037 107.724V106.209C354.967 106.293 354.813 106.37 354.574 106.44C354.34 106.506 354.069 106.564 353.76 106.616C353.456 106.662 353.159 106.705 352.869 106.742C352.584 106.775 352.353 106.803 352.175 106.826C351.745 106.882 351.342 106.973 350.968 107.1C350.599 107.221 350.299 107.406 350.07 107.654C349.846 107.897 349.733 108.229 349.733 108.65C349.733 109.226 349.946 109.661 350.372 109.955C350.802 110.245 351.347 110.39 352.006 110.39Z" fill="#161616"/>
<path d="M33.4223 162.664V148.295H42.0939V149.839H35.1622V154.694H41.6449V156.237H35.1622V161.12H42.2062V162.664H33.4223ZM46.2403 151.887L48.8221 156.293L51.404 151.887H53.3123L49.8324 157.275L53.3123 162.664H51.404L48.8221 158.482L46.2403 162.664H44.332L47.7557 157.275L44.332 151.887H46.2403ZM55.6749 166.705V151.887H57.2745V153.599H57.471C57.5926 153.412 57.761 153.173 57.9761 152.883C58.1959 152.589 58.5093 152.327 58.9162 152.098C59.3278 151.864 59.8844 151.747 60.586 151.747C61.4934 151.747 62.2932 151.974 62.9854 152.427C63.6777 152.881 64.2179 153.524 64.6061 154.357C64.9943 155.189 65.1884 156.172 65.1884 157.303C65.1884 158.445 64.9943 159.434 64.6061 160.271C64.2179 161.104 63.68 161.749 62.9925 162.208C62.3049 162.661 61.5121 162.888 60.6141 162.888C59.9218 162.888 59.3676 162.773 58.9513 162.544C58.535 162.31 58.2146 162.046 57.9901 161.752C57.7656 161.452 57.5926 161.204 57.471 161.008H57.3306V166.705H55.6749ZM57.3026 157.275C57.3026 158.089 57.4219 158.807 57.6604 159.429C57.8989 160.047 58.2474 160.531 58.7058 160.882C59.1641 161.228 59.7254 161.401 60.3896 161.401C61.0818 161.401 61.6594 161.218 62.1225 160.853C62.5902 160.484 62.941 159.988 63.1749 159.366C63.4134 158.739 63.5327 158.042 63.5327 157.275C63.5327 156.518 63.4157 155.835 63.1819 155.227C62.9527 154.614 62.6042 154.13 62.1365 153.774C61.6735 153.414 61.0912 153.234 60.3896 153.234C59.716 153.234 59.1501 153.405 58.6917 153.746C58.2334 154.083 57.8872 154.556 57.6534 155.164C57.4195 155.767 57.3026 156.471 57.3026 157.275ZM72.2324 162.888C71.194 162.888 70.2983 162.659 69.5453 162.201C68.7969 161.737 68.2193 161.092 67.8124 160.264C67.4101 159.432 67.209 158.463 67.209 157.36C67.209 156.256 67.4101 155.283 67.8124 154.441C68.2193 153.594 68.7852 152.935 69.5102 152.462C70.2399 151.985 71.0911 151.747 72.064 151.747C72.6253 151.747 73.1795 151.84 73.7267 152.028C74.274 152.215 74.7721 152.519 75.2211 152.94C75.6701 153.356 76.0279 153.908 76.2946 154.595C76.5612 155.283 76.6945 156.129 76.6945 157.135V157.837H68.3877V156.405H75.0106C75.0106 155.797 74.889 155.255 74.6458 154.778C74.4073 154.301 74.0658 153.924 73.6215 153.648C73.1818 153.372 72.6627 153.234 72.064 153.234C71.4045 153.234 70.8339 153.398 70.3521 153.725C69.875 154.048 69.5079 154.469 69.2506 154.988C68.9934 155.507 68.8647 156.064 68.8647 156.658V157.612C68.8647 158.426 69.0051 159.116 69.2857 159.682C69.571 160.243 69.9662 160.671 70.4714 160.966C70.9765 161.256 71.5635 161.401 72.2324 161.401C72.6673 161.401 73.0602 161.34 73.411 161.218C73.7665 161.092 74.0729 160.905 74.3301 160.657C74.5874 160.404 74.7861 160.091 74.9265 159.717L76.5261 160.166C76.3577 160.708 76.0747 161.186 75.6772 161.597C75.2796 162.004 74.7885 162.322 74.2038 162.551C73.6192 162.776 72.962 162.888 72.2324 162.888ZM79.2132 162.664V151.887H80.8128V153.515H80.925C81.1215 152.982 81.4769 152.549 81.9914 152.217C82.5059 151.885 83.0859 151.719 83.7314 151.719C83.853 151.719 84.005 151.721 84.1874 151.726C84.3698 151.731 84.5078 151.738 84.6013 151.747V153.431C84.5452 153.417 84.4166 153.396 84.2155 153.368C84.019 153.335 83.8109 153.318 83.5911 153.318C83.0672 153.318 82.5995 153.428 82.1879 153.648C81.781 153.863 81.4582 154.163 81.2197 154.546C80.9858 154.925 80.8689 155.358 80.8689 155.844V162.664H79.2132ZM86.564 162.664V151.887H88.2198V162.664H86.564ZM87.4059 150.091C87.0832 150.091 86.8049 149.981 86.5711 149.761C86.3419 149.542 86.2273 149.277 86.2273 148.969C86.2273 148.66 86.3419 148.396 86.5711 148.176C86.8049 147.956 87.0832 147.846 87.4059 147.846C87.7287 147.846 88.0046 147.956 88.2338 148.176C88.4677 148.396 88.5846 148.66 88.5846 148.969C88.5846 149.277 88.4677 149.542 88.2338 149.761C88.0046 149.981 87.7287 150.091 87.4059 150.091ZM95.7706 162.888C94.7323 162.888 93.8366 162.659 93.0835 162.201C92.3352 161.737 91.7575 161.092 91.3506 160.264C90.9484 159.432 90.7472 158.463 90.7472 157.36C90.7472 156.256 90.9484 155.283 91.3506 154.441C91.7575 153.594 92.3235 152.935 93.0485 152.462C93.7781 151.985 94.6294 151.747 95.6022 151.747C96.1635 151.747 96.7178 151.84 97.265 152.028C97.8122 152.215 98.3104 152.519 98.7594 152.94C99.2084 153.356 99.5662 153.908 99.8328 154.595C100.099 155.283 100.233 156.129 100.233 157.135V157.837H91.9259V156.405H98.5489C98.5489 155.797 98.4273 155.255 98.1841 154.778C97.9455 154.301 97.6041 153.924 97.1598 153.648C96.7201 153.372 96.2009 153.234 95.6022 153.234C94.9427 153.234 94.3721 153.398 93.8904 153.725C93.4133 154.048 93.0461 154.469 92.7889 154.988C92.5316 155.507 92.403 156.064 92.403 156.658V157.612C92.403 158.426 92.5433 159.116 92.8239 159.682C93.1093 160.243 93.5045 160.671 94.0096 160.966C94.5148 161.256 95.1018 161.401 95.7706 161.401C96.2056 161.401 96.5985 161.34 96.9493 161.218C97.3047 161.092 97.6111 160.905 97.8684 160.657C98.1256 160.404 98.3244 160.091 98.4647 159.717L100.064 160.166C99.8959 160.708 99.613 161.186 99.2154 161.597C98.8178 162.004 98.3267 162.322 97.7421 162.551C97.1574 162.776 96.5003 162.888 95.7706 162.888ZM104.407 156.181V162.664H102.751V151.887H104.351V153.571H104.491C104.744 153.024 105.127 152.584 105.642 152.252C106.156 151.915 106.821 151.747 107.634 151.747C108.364 151.747 109.003 151.897 109.55 152.196C110.097 152.491 110.523 152.94 110.827 153.543C111.131 154.142 111.283 154.899 111.283 155.816V162.664H109.627V155.928C109.627 155.082 109.407 154.422 108.967 153.95C108.528 153.473 107.924 153.234 107.157 153.234C106.629 153.234 106.156 153.349 105.74 153.578C105.329 153.807 105.004 154.142 104.765 154.581C104.526 155.021 104.407 155.554 104.407 156.181ZM118.686 162.888C117.676 162.888 116.806 162.65 116.076 162.172C115.347 161.695 114.785 161.038 114.392 160.201C114 159.364 113.803 158.407 113.803 157.332C113.803 156.237 114.004 155.271 114.407 154.434C114.813 153.592 115.379 152.935 116.104 152.462C116.834 151.985 117.685 151.747 118.658 151.747C119.416 151.747 120.099 151.887 120.707 152.168C121.315 152.448 121.813 152.841 122.201 153.346C122.589 153.852 122.83 154.441 122.924 155.114H121.268C121.142 154.623 120.861 154.188 120.426 153.81C119.996 153.426 119.416 153.234 118.686 153.234C118.041 153.234 117.475 153.403 116.988 153.739C116.507 154.071 116.13 154.542 115.859 155.15C115.592 155.753 115.459 156.462 115.459 157.275C115.459 158.108 115.59 158.833 115.852 159.45C116.118 160.068 116.493 160.547 116.974 160.889C117.461 161.23 118.031 161.401 118.686 161.401C119.117 161.401 119.507 161.326 119.858 161.176C120.209 161.027 120.506 160.811 120.749 160.531C120.992 160.25 121.165 159.913 121.268 159.52H122.924C122.83 160.157 122.599 160.73 122.229 161.239C121.864 161.744 121.38 162.147 120.777 162.446C120.178 162.741 119.481 162.888 118.686 162.888ZM129.862 162.888C128.824 162.888 127.928 162.659 127.175 162.201C126.427 161.737 125.849 161.092 125.442 160.264C125.04 159.432 124.839 158.463 124.839 157.36C124.839 156.256 125.04 155.283 125.442 154.441C125.849 153.594 126.415 152.935 127.14 152.462C127.87 151.985 128.721 151.747 129.694 151.747C130.255 151.747 130.81 151.84 131.357 152.028C131.904 152.215 132.402 152.519 132.851 152.94C133.3 153.356 133.658 153.908 133.925 154.595C134.191 155.283 134.325 156.129 134.325 157.135V157.837H126.018V156.405H132.641C132.641 155.797 132.519 155.255 132.276 154.778C132.037 154.301 131.696 153.924 131.252 153.648C130.812 153.372 130.293 153.234 129.694 153.234C129.035 153.234 128.464 153.398 127.982 153.725C127.505 154.048 127.138 154.469 126.881 154.988C126.623 155.507 126.495 156.064 126.495 156.658V157.612C126.495 158.426 126.635 159.116 126.916 159.682C127.201 160.243 127.596 160.671 128.102 160.966C128.607 161.256 129.194 161.401 129.862 161.401C130.297 161.401 130.69 161.34 131.041 161.218C131.397 161.092 131.703 160.905 131.96 160.657C132.217 160.404 132.416 160.091 132.557 159.717L134.156 160.166C133.988 160.708 133.705 161.186 133.307 161.597C132.91 162.004 132.419 162.322 131.834 162.551C131.249 162.776 130.592 162.888 129.862 162.888Z" fill="#8D8D8D"/>
<path d="M313.391 148.295V162.664H311.651V150.119H311.567L308.059 152.448V150.68L311.651 148.295H313.391ZM318.618 166.705C318.337 166.705 318.087 166.681 317.867 166.635C317.647 166.592 317.495 166.55 317.411 166.508L317.832 165.049C318.234 165.152 318.59 165.189 318.899 165.161C319.207 165.133 319.481 164.995 319.719 164.747C319.963 164.504 320.185 164.109 320.386 163.562L320.695 162.72L316.71 151.887H318.506L321.48 160.475H321.593L324.567 151.887H326.363L321.789 164.235C321.583 164.792 321.328 165.252 321.024 165.617C320.72 165.987 320.367 166.26 319.965 166.438C319.567 166.616 319.118 166.705 318.618 166.705ZM332.681 162.888C331.643 162.888 330.747 162.659 329.994 162.201C329.246 161.737 328.668 161.092 328.261 160.264C327.859 159.432 327.658 158.463 327.658 157.36C327.658 156.256 327.859 155.283 328.261 154.441C328.668 153.594 329.234 152.935 329.959 152.462C330.689 151.985 331.54 151.747 332.513 151.747C333.074 151.747 333.628 151.84 334.176 152.028C334.723 152.215 335.221 152.519 335.67 152.94C336.119 153.356 336.477 153.908 336.743 154.595C337.01 155.283 337.143 156.129 337.143 157.135V157.837H328.837V156.405H335.459C335.459 155.797 335.338 155.255 335.095 154.778C334.856 154.301 334.515 153.924 334.07 153.648C333.631 153.372 333.112 153.234 332.513 153.234C331.853 153.234 331.283 153.398 330.801 153.725C330.324 154.048 329.957 154.469 329.699 154.988C329.442 155.507 329.314 156.064 329.314 156.658V157.612C329.314 158.426 329.454 159.116 329.735 159.682C330.02 160.243 330.415 160.671 330.92 160.966C331.425 161.256 332.012 161.401 332.681 161.401C333.116 161.401 333.509 161.34 333.86 161.218C334.215 161.092 334.522 160.905 334.779 160.657C335.036 160.404 335.235 160.091 335.375 159.717L336.975 160.166C336.807 160.708 336.524 161.186 336.126 161.597C335.728 162.004 335.237 162.322 334.653 162.551C334.068 162.776 333.411 162.888 332.681 162.888ZM342.833 162.916C342.15 162.916 341.531 162.788 340.974 162.53C340.417 162.268 339.975 161.892 339.648 161.401C339.321 160.905 339.157 160.306 339.157 159.605C339.157 158.987 339.278 158.487 339.522 158.103C339.765 157.715 340.09 157.411 340.497 157.191C340.904 156.971 341.353 156.808 341.844 156.7C342.34 156.588 342.838 156.499 343.338 156.433C343.993 156.349 344.524 156.286 344.931 156.244C345.343 156.197 345.642 156.12 345.829 156.013C346.021 155.905 346.117 155.718 346.117 155.451V155.395C346.117 154.703 345.927 154.165 345.548 153.781C345.174 153.398 344.606 153.206 343.843 153.206C343.053 153.206 342.433 153.379 341.984 153.725C341.535 154.071 341.22 154.441 341.037 154.834L339.466 154.273C339.746 153.618 340.12 153.108 340.588 152.743C341.06 152.374 341.575 152.116 342.132 151.971C342.693 151.822 343.245 151.747 343.787 151.747C344.133 151.747 344.531 151.789 344.98 151.873C345.434 151.953 345.871 152.119 346.292 152.371C346.718 152.624 347.071 153.005 347.351 153.515C347.632 154.025 347.772 154.708 347.772 155.564V162.664H346.117V161.204H346.032C345.92 161.438 345.733 161.688 345.471 161.955C345.209 162.222 344.861 162.448 344.426 162.636C343.991 162.823 343.46 162.916 342.833 162.916ZM343.086 161.429C343.741 161.429 344.292 161.3 344.741 161.043C345.195 160.786 345.537 160.454 345.766 160.047C346 159.64 346.117 159.212 346.117 158.763V157.247C346.046 157.332 345.892 157.409 345.654 157.479C345.42 157.544 345.148 157.603 344.84 157.654C344.536 157.701 344.239 157.743 343.949 157.781C343.663 157.813 343.432 157.841 343.254 157.865C342.824 157.921 342.422 158.012 342.047 158.138C341.678 158.26 341.379 158.445 341.149 158.693C340.925 158.936 340.813 159.268 340.813 159.689C340.813 160.264 341.025 160.699 341.451 160.994C341.881 161.284 342.426 161.429 343.086 161.429ZM350.794 162.664V151.887H352.394V153.515H352.506C352.703 152.982 353.058 152.549 353.573 152.217C354.087 151.885 354.667 151.719 355.313 151.719C355.434 151.719 355.586 151.721 355.769 151.726C355.951 151.731 356.089 151.738 356.183 151.747V153.431C356.126 153.417 355.998 153.396 355.797 153.368C355.6 153.335 355.392 153.318 355.172 153.318C354.648 153.318 354.181 153.428 353.769 153.648C353.362 153.863 353.04 154.163 352.801 154.546C352.567 154.925 352.45 155.358 352.45 155.844V162.664H350.794Z" fill="#161616"/>
<path d="M33.4223 213.702V199.333H42.0939V200.877H35.1622V205.732H41.6449V207.275H35.1622V212.158H42.2062V213.702H33.4223ZM46.2403 202.925L48.8221 207.331L51.404 202.925H53.3123L49.8324 208.313L53.3123 213.702H51.404L48.8221 209.52L46.2403 213.702H44.332L47.7557 208.313L44.332 202.925H46.2403ZM55.6749 217.743V202.925H57.2745V204.637H57.471C57.5926 204.45 57.761 204.212 57.9761 203.922C58.1959 203.627 58.5093 203.365 58.9162 203.136C59.3278 202.902 59.8844 202.785 60.586 202.785C61.4934 202.785 62.2932 203.012 62.9854 203.466C63.6777 203.919 64.2179 204.562 64.6061 205.395C64.9943 206.227 65.1884 207.21 65.1884 208.342C65.1884 209.483 64.9943 210.472 64.6061 211.309C64.2179 212.142 63.68 212.787 62.9925 213.246C62.3049 213.699 61.5121 213.926 60.6141 213.926C59.9218 213.926 59.3676 213.812 58.9513 213.582C58.535 213.349 58.2146 213.084 57.9901 212.79C57.7656 212.49 57.5926 212.242 57.471 212.046H57.3306V217.743H55.6749ZM57.3026 208.313C57.3026 209.127 57.4219 209.845 57.6604 210.467C57.8989 211.085 58.2474 211.569 58.7058 211.92C59.1641 212.266 59.7254 212.439 60.3896 212.439C61.0818 212.439 61.6594 212.256 62.1225 211.892C62.5902 211.522 62.941 211.026 63.1749 210.404C63.4134 209.777 63.5327 209.081 63.5327 208.313C63.5327 207.556 63.4157 206.873 63.1819 206.265C62.9527 205.652 62.6042 205.168 62.1365 204.813C61.6735 204.452 61.0912 204.272 60.3896 204.272C59.716 204.272 59.1501 204.443 58.6917 204.784C58.2334 205.121 57.8872 205.594 57.6534 206.202C57.4195 206.805 57.3026 207.509 57.3026 208.313ZM72.2324 213.926C71.194 213.926 70.2983 213.697 69.5453 213.239C68.7969 212.776 68.2193 212.13 67.8124 211.302C67.4101 210.47 67.209 209.501 67.209 208.398C67.209 207.294 67.4101 206.321 67.8124 205.479C68.2193 204.632 68.7852 203.973 69.5102 203.501C70.2399 203.024 71.0911 202.785 72.064 202.785C72.6253 202.785 73.1795 202.879 73.7267 203.066C74.274 203.253 74.7721 203.557 75.2211 203.978C75.6701 204.394 76.0279 204.946 76.2946 205.633C76.5612 206.321 76.6945 207.168 76.6945 208.173V208.875H68.3877V207.444H75.0106C75.0106 206.835 74.889 206.293 74.6458 205.816C74.4073 205.339 74.0658 204.962 73.6215 204.686C73.1818 204.41 72.6627 204.272 72.064 204.272C71.4045 204.272 70.8339 204.436 70.3521 204.763C69.875 205.086 69.5079 205.507 69.2506 206.026C68.9934 206.545 68.8647 207.102 68.8647 207.696V208.65C68.8647 209.464 69.0051 210.154 69.2857 210.72C69.571 211.281 69.9662 211.709 70.4714 212.004C70.9765 212.294 71.5635 212.439 72.2324 212.439C72.6673 212.439 73.0602 212.378 73.411 212.256C73.7665 212.13 74.0729 211.943 74.3301 211.695C74.5874 211.443 74.7861 211.129 74.9265 210.755L76.5261 211.204C76.3577 211.747 76.0747 212.224 75.6772 212.635C75.2796 213.042 74.7885 213.36 74.2038 213.589C73.6192 213.814 72.962 213.926 72.2324 213.926ZM83.5911 213.926C82.5808 213.926 81.7108 213.688 80.9812 213.211C80.2515 212.733 79.6902 212.076 79.2973 211.239C78.9045 210.402 78.708 209.445 78.708 208.37C78.708 207.275 78.9091 206.309 79.3114 205.472C79.7183 204.63 80.2842 203.973 81.0092 203.501C81.7389 203.024 82.5901 202.785 83.563 202.785C84.3207 202.785 85.0036 202.925 85.6116 203.206C86.2197 203.487 86.7178 203.879 87.106 204.385C87.4942 204.89 87.7351 205.479 87.8286 206.153H86.1729C86.0466 205.661 85.766 205.226 85.331 204.848C84.9007 204.464 84.3207 204.272 83.5911 204.272C82.9456 204.272 82.3797 204.441 81.8932 204.777C81.4115 205.11 81.0349 205.58 80.7637 206.188C80.4971 206.791 80.3638 207.5 80.3638 208.313C80.3638 209.146 80.4947 209.871 80.7566 210.488C81.0233 211.106 81.3974 211.585 81.8792 211.927C82.3656 212.268 82.9362 212.439 83.5911 212.439C84.0214 212.439 84.4119 212.364 84.7627 212.214C85.1135 212.065 85.4105 211.849 85.6537 211.569C85.8969 211.288 86.07 210.951 86.1729 210.559H87.8286C87.7351 211.195 87.5036 211.768 87.1341 212.277C86.7693 212.783 86.2852 213.185 85.6818 213.484C85.0831 213.779 84.3862 213.926 83.5911 213.926ZM94.9357 202.925V204.328H89.3511V202.925H94.9357ZM90.9788 200.343H92.6345V210.615C92.6345 211.082 92.7023 211.433 92.838 211.667C92.9783 211.896 93.156 212.051 93.3712 212.13C93.591 212.205 93.8225 212.242 94.0658 212.242C94.2482 212.242 94.3978 212.233 94.5148 212.214C94.6317 212.191 94.7252 212.172 94.7954 212.158L95.1322 213.646C95.0199 213.688 94.8632 213.73 94.6621 213.772C94.461 213.819 94.2061 213.842 93.8974 213.842C93.4296 213.842 92.9713 213.741 92.5223 213.54C92.0779 213.339 91.7084 213.033 91.4138 212.621C91.1238 212.21 90.9788 211.69 90.9788 211.064V200.343ZM101.829 213.926C100.79 213.926 99.8948 213.697 99.1417 213.239C98.3934 212.776 97.8157 212.13 97.4088 211.302C97.0066 210.47 96.8055 209.501 96.8055 208.398C96.8055 207.294 97.0066 206.321 97.4088 205.479C97.8157 204.632 98.3817 203.973 99.1067 203.501C99.8363 203.024 100.688 202.785 101.66 202.785C102.222 202.785 102.776 202.879 103.323 203.066C103.87 203.253 104.369 203.557 104.818 203.978C105.267 204.394 105.624 204.946 105.891 205.633C106.158 206.321 106.291 207.168 106.291 208.173V208.875H97.9841V207.444H104.607C104.607 206.835 104.485 206.293 104.242 205.816C104.004 205.339 103.662 204.962 103.218 204.686C102.778 204.41 102.259 204.272 101.66 204.272C101.001 204.272 100.43 204.436 99.9486 204.763C99.4715 205.086 99.1043 205.507 98.8471 206.026C98.5898 206.545 98.4612 207.102 98.4612 207.696V208.65C98.4612 209.464 98.6015 210.154 98.8821 210.72C99.1675 211.281 99.5627 211.709 100.068 212.004C100.573 212.294 101.16 212.439 101.829 212.439C102.264 212.439 102.657 212.378 103.007 212.256C103.363 212.13 103.669 211.943 103.927 211.695C104.184 211.443 104.383 211.129 104.523 210.755L106.123 211.204C105.954 211.747 105.671 212.224 105.274 212.635C104.876 213.042 104.385 213.36 103.8 213.589C103.216 213.814 102.558 213.926 101.829 213.926ZM112.879 213.926C111.981 213.926 111.188 213.699 110.5 213.246C109.813 212.787 109.275 212.142 108.887 211.309C108.499 210.472 108.304 209.483 108.304 208.342C108.304 207.21 108.499 206.227 108.887 205.395C109.275 204.562 109.815 203.919 110.507 203.466C111.2 203.012 111.999 202.785 112.907 202.785C113.608 202.785 114.163 202.902 114.57 203.136C114.981 203.365 115.295 203.627 115.51 203.922C115.73 204.212 115.9 204.45 116.022 204.637H116.162V199.333H117.818V213.702H116.218V212.046H116.022C115.9 212.242 115.727 212.49 115.503 212.79C115.278 213.084 114.958 213.349 114.542 213.582C114.125 213.812 113.571 213.926 112.879 213.926ZM113.103 212.439C113.767 212.439 114.329 212.266 114.787 211.92C115.246 211.569 115.594 211.085 115.832 210.467C116.071 209.845 116.19 209.127 116.19 208.313C116.19 207.509 116.073 206.805 115.84 206.202C115.606 205.594 115.26 205.121 114.801 204.784C114.343 204.443 113.777 204.272 113.103 204.272C112.402 204.272 111.817 204.452 111.349 204.813C110.886 205.168 110.538 205.652 110.304 206.265C110.075 206.873 109.96 207.556 109.96 208.313C109.96 209.081 110.077 209.777 110.311 210.404C110.55 211.026 110.9 211.522 111.363 211.892C111.831 212.256 112.411 212.439 113.103 212.439ZM134.27 205.339L132.783 205.76C132.689 205.512 132.551 205.271 132.369 205.037C132.191 204.799 131.948 204.602 131.639 204.448C131.331 204.293 130.935 204.216 130.454 204.216C129.794 204.216 129.245 204.368 128.805 204.672C128.37 204.972 128.152 205.353 128.152 205.816C128.152 206.227 128.302 206.552 128.601 206.791C128.901 207.03 129.368 207.228 130.005 207.387L131.604 207.78C132.568 208.014 133.286 208.372 133.758 208.854C134.23 209.331 134.467 209.946 134.467 210.699C134.467 211.316 134.289 211.868 133.933 212.355C133.583 212.841 133.092 213.225 132.46 213.505C131.829 213.786 131.094 213.926 130.257 213.926C129.158 213.926 128.248 213.688 127.528 213.211C126.808 212.733 126.352 212.037 126.16 211.12L127.731 210.727C127.881 211.307 128.164 211.742 128.58 212.032C129.001 212.322 129.551 212.467 130.229 212.467C131.001 212.467 131.614 212.303 132.067 211.976C132.526 211.644 132.755 211.246 132.755 210.783C132.755 210.409 132.624 210.096 132.362 209.843C132.1 209.586 131.698 209.394 131.155 209.268L129.359 208.847C128.372 208.613 127.647 208.25 127.184 207.759C126.726 207.263 126.497 206.644 126.497 205.9C126.497 205.292 126.667 204.754 127.009 204.286C127.355 203.819 127.825 203.451 128.419 203.185C129.018 202.918 129.696 202.785 130.454 202.785C131.52 202.785 132.357 203.019 132.965 203.487C133.578 203.954 134.013 204.572 134.27 205.339ZM140.13 213.954C139.447 213.954 138.828 213.826 138.271 213.568C137.714 213.306 137.272 212.93 136.945 212.439C136.618 211.943 136.454 211.344 136.454 210.643C136.454 210.025 136.576 209.525 136.819 209.141C137.062 208.753 137.387 208.449 137.794 208.229C138.201 208.009 138.65 207.846 139.141 207.738C139.637 207.626 140.135 207.537 140.635 207.472C141.29 207.387 141.821 207.324 142.228 207.282C142.64 207.235 142.939 207.158 143.126 207.051C143.318 206.943 143.414 206.756 143.414 206.489V206.433C143.414 205.741 143.224 205.203 142.845 204.82C142.471 204.436 141.903 204.244 141.141 204.244C140.35 204.244 139.73 204.417 139.281 204.763C138.832 205.11 138.517 205.479 138.334 205.872L136.763 205.311C137.043 204.656 137.417 204.146 137.885 203.781C138.358 203.412 138.872 203.154 139.429 203.009C139.99 202.86 140.542 202.785 141.084 202.785C141.43 202.785 141.828 202.827 142.277 202.911C142.731 202.991 143.168 203.157 143.589 203.409C144.015 203.662 144.368 204.043 144.648 204.553C144.929 205.063 145.069 205.746 145.069 206.602V213.702H143.414V212.242H143.329C143.217 212.476 143.03 212.726 142.768 212.993C142.506 213.26 142.158 213.487 141.723 213.674C141.288 213.861 140.757 213.954 140.13 213.954ZM140.383 212.467C141.038 212.467 141.59 212.338 142.039 212.081C142.492 211.824 142.834 211.492 143.063 211.085C143.297 210.678 143.414 210.25 143.414 209.801V208.285C143.343 208.37 143.189 208.447 142.951 208.517C142.717 208.582 142.445 208.641 142.137 208.692C141.833 208.739 141.536 208.781 141.246 208.819C140.96 208.851 140.729 208.879 140.551 208.903C140.121 208.959 139.719 209.05 139.344 209.176C138.975 209.298 138.676 209.483 138.446 209.731C138.222 209.974 138.11 210.306 138.11 210.727C138.11 211.302 138.322 211.737 138.748 212.032C139.178 212.322 139.723 212.467 140.383 212.467ZM149.747 199.333V213.702H148.091V199.333H149.747ZM155.951 213.954C155.268 213.954 154.648 213.826 154.092 213.568C153.535 213.306 153.093 212.93 152.766 212.439C152.438 211.943 152.275 211.344 152.275 210.643C152.275 210.025 152.396 209.525 152.64 209.141C152.883 208.753 153.208 208.449 153.615 208.229C154.022 208.009 154.471 207.846 154.962 207.738C155.458 207.626 155.956 207.537 156.456 207.472C157.111 207.387 157.642 207.324 158.049 207.282C158.46 207.235 158.76 207.158 158.947 207.051C159.139 206.943 159.234 206.756 159.234 206.489V206.433C159.234 205.741 159.045 205.203 158.666 204.82C158.292 204.436 157.724 204.244 156.961 204.244C156.171 204.244 155.551 204.417 155.102 204.763C154.653 205.11 154.337 205.479 154.155 205.872L152.583 205.311C152.864 204.656 153.238 204.146 153.706 203.781C154.178 203.412 154.693 203.154 155.249 203.009C155.811 202.86 156.363 202.785 156.905 202.785C157.251 202.785 157.649 202.827 158.098 202.911C158.552 202.991 158.989 203.157 159.41 203.409C159.835 203.662 160.189 204.043 160.469 204.553C160.75 205.063 160.89 205.746 160.89 206.602V213.702H159.234V212.242H159.15C159.038 212.476 158.851 212.726 158.589 212.993C158.327 213.26 157.979 213.487 157.544 213.674C157.109 213.861 156.578 213.954 155.951 213.954ZM156.204 212.467C156.858 212.467 157.41 212.338 157.859 212.081C158.313 211.824 158.654 211.492 158.884 211.085C159.118 210.678 159.234 210.25 159.234 209.801V208.285C159.164 208.37 159.01 208.447 158.771 208.517C158.538 208.582 158.266 208.641 157.958 208.692C157.654 208.739 157.357 208.781 157.067 208.819C156.781 208.851 156.55 208.879 156.372 208.903C155.942 208.959 155.539 209.05 155.165 209.176C154.796 209.298 154.496 209.483 154.267 209.731C154.043 209.974 153.93 210.306 153.93 210.727C153.93 211.302 154.143 211.737 154.569 212.032C154.999 212.322 155.544 212.467 156.204 212.467ZM163.912 213.702V202.925H165.512V204.553H165.624C165.821 204.02 166.176 203.587 166.691 203.255C167.205 202.923 167.785 202.757 168.431 202.757C168.552 202.757 168.704 202.759 168.887 202.764C169.069 202.769 169.207 202.776 169.3 202.785V204.469C169.244 204.455 169.116 204.434 168.915 204.406C168.718 204.373 168.51 204.357 168.29 204.357C167.766 204.357 167.299 204.466 166.887 204.686C166.48 204.901 166.157 205.201 165.919 205.584C165.685 205.963 165.568 206.396 165.568 206.882V213.702H163.912ZM172.658 217.743C172.377 217.743 172.127 217.719 171.907 217.673C171.687 217.631 171.535 217.588 171.451 217.546L171.872 216.087C172.274 216.19 172.629 216.227 172.938 216.199C173.247 216.171 173.521 216.033 173.759 215.785C174.002 215.542 174.224 215.147 174.426 214.6L174.734 213.758L170.749 202.925H172.545L175.52 211.513H175.632L178.607 202.925H180.403L175.829 215.273C175.623 215.83 175.368 216.291 175.064 216.655C174.76 217.025 174.407 217.298 174.005 217.476C173.607 217.654 173.158 217.743 172.658 217.743Z" fill="#8D8D8D"/>
<path d="M299.804 215.498V197.537H300.954V215.498H299.804ZM303.677 202.925C303.592 202.214 303.251 201.662 302.652 201.27C302.054 200.877 301.319 200.68 300.449 200.68C299.813 200.68 299.257 200.783 298.779 200.989C298.307 201.195 297.938 201.478 297.671 201.838C297.409 202.198 297.278 202.607 297.278 203.066C297.278 203.449 297.369 203.779 297.552 204.055C297.739 204.326 297.977 204.553 298.267 204.735C298.557 204.913 298.861 205.06 299.179 205.177C299.497 205.29 299.79 205.381 300.056 205.451L301.516 205.844C301.89 205.942 302.306 206.078 302.765 206.251C303.228 206.424 303.67 206.66 304.091 206.959C304.516 207.254 304.867 207.633 305.143 208.096C305.419 208.559 305.557 209.127 305.557 209.801C305.557 210.577 305.353 211.279 304.946 211.906C304.544 212.532 303.955 213.03 303.178 213.4C302.407 213.769 301.469 213.954 300.365 213.954C299.336 213.954 298.445 213.788 297.692 213.456C296.944 213.124 296.354 212.661 295.924 212.067C295.498 211.473 295.258 210.783 295.201 209.997H296.997C297.044 210.54 297.227 210.989 297.545 211.344C297.867 211.695 298.274 211.957 298.765 212.13C299.261 212.298 299.794 212.383 300.365 212.383C301.029 212.383 301.626 212.275 302.154 212.06C302.683 211.84 303.101 211.536 303.41 211.148C303.719 210.755 303.873 210.297 303.873 209.773C303.873 209.296 303.74 208.907 303.473 208.608C303.207 208.309 302.856 208.066 302.421 207.878C301.986 207.691 301.516 207.528 301.011 207.387L299.243 206.882C298.12 206.56 297.231 206.099 296.577 205.5C295.922 204.901 295.594 204.118 295.594 203.15C295.594 202.345 295.812 201.644 296.247 201.045C296.686 200.442 297.276 199.974 298.015 199.642C298.758 199.305 299.589 199.137 300.505 199.137C301.431 199.137 302.255 199.303 302.975 199.635C303.695 199.962 304.266 200.411 304.687 200.982C305.112 201.553 305.337 202.2 305.36 202.925H303.677ZM308.614 213.702L315.041 200.989V200.877H307.632V199.333H316.837V200.961L310.438 213.702H308.614ZM319.48 211.737L319.368 212.495C319.288 213.028 319.166 213.599 319.003 214.207C318.844 214.815 318.678 215.388 318.505 215.926C318.332 216.464 318.189 216.892 318.077 217.21H316.814C316.875 216.91 316.954 216.515 317.052 216.024C317.151 215.533 317.249 214.983 317.347 214.375C317.45 213.772 317.534 213.154 317.6 212.523L317.684 211.737H319.48ZM326.72 213.898C325.897 213.898 325.156 213.734 324.496 213.407C323.837 213.08 323.308 212.631 322.911 212.06C322.513 211.489 322.296 210.839 322.258 210.11H323.942C324.007 210.76 324.302 211.298 324.826 211.723C325.354 212.144 325.986 212.355 326.72 212.355C327.31 212.355 327.833 212.217 328.292 211.941C328.755 211.665 329.117 211.286 329.379 210.804C329.646 210.318 329.779 209.768 329.779 209.155C329.779 208.529 329.641 207.97 329.365 207.479C329.094 206.983 328.72 206.592 328.243 206.307C327.766 206.022 327.221 205.877 326.608 205.872C326.168 205.867 325.717 205.935 325.254 206.075C324.791 206.211 324.41 206.386 324.11 206.602L322.483 206.405L323.353 199.333H330.817V200.877H324.812L324.307 205.114H324.391C324.686 204.88 325.055 204.686 325.499 204.532C325.944 204.378 326.407 204.3 326.889 204.3C327.768 204.3 328.551 204.511 329.239 204.932C329.931 205.348 330.474 205.919 330.867 206.644C331.264 207.369 331.463 208.197 331.463 209.127C331.463 210.044 331.257 210.863 330.846 211.583C330.439 212.298 329.877 212.864 329.162 213.281C328.446 213.692 327.632 213.898 326.72 213.898ZM338.937 213.898C337.88 213.898 336.979 213.61 336.235 213.035C335.492 212.455 334.924 211.616 334.531 210.516C334.138 209.413 333.941 208.08 333.941 206.517C333.941 204.965 334.138 203.639 334.531 202.539C334.928 201.436 335.499 200.594 336.242 200.014C336.991 199.429 337.889 199.137 338.937 199.137C339.984 199.137 340.88 199.429 341.624 200.014C342.372 200.594 342.943 201.436 343.336 202.539C343.733 203.639 343.932 204.965 343.932 206.517C343.932 208.08 343.735 209.413 343.343 210.516C342.95 211.616 342.381 212.455 341.638 213.035C340.894 213.61 339.994 213.898 338.937 213.898ZM338.937 212.355C339.984 212.355 340.798 211.849 341.378 210.839C341.958 209.829 342.248 208.388 342.248 206.517C342.248 205.273 342.115 204.214 341.848 203.339C341.586 202.465 341.207 201.798 340.712 201.34C340.22 200.881 339.629 200.652 338.937 200.652C337.898 200.652 337.087 201.164 336.502 202.189C335.917 203.208 335.625 204.651 335.625 206.517C335.625 207.762 335.756 208.819 336.018 209.689C336.28 210.559 336.656 211.22 337.148 211.674C337.643 212.128 338.24 212.355 338.937 212.355ZM351.285 213.898C350.227 213.898 349.327 213.61 348.583 213.035C347.84 212.455 347.271 211.616 346.879 210.516C346.486 209.413 346.289 208.08 346.289 206.517C346.289 204.965 346.486 203.639 346.879 202.539C347.276 201.436 347.847 200.594 348.59 200.014C349.339 199.429 350.237 199.137 351.285 199.137C352.332 199.137 353.228 199.429 353.972 200.014C354.72 200.594 355.291 201.436 355.683 202.539C356.081 203.639 356.28 204.965 356.28 206.517C356.28 208.08 356.083 209.413 355.69 210.516C355.298 211.616 354.729 212.455 353.986 213.035C353.242 213.61 352.342 213.898 351.285 213.898ZM351.285 212.355C352.332 212.355 353.146 211.849 353.726 210.839C354.306 209.829 354.596 208.388 354.596 206.517C354.596 205.273 354.463 204.214 354.196 203.339C353.934 202.465 353.555 201.798 353.06 201.34C352.568 200.881 351.977 200.652 351.285 200.652C350.246 200.652 349.435 201.164 348.85 202.189C348.265 203.208 347.973 204.651 347.973 206.517C347.973 207.762 348.104 208.819 348.366 209.689C348.628 210.559 349.004 211.22 349.495 211.674C349.991 212.128 350.588 212.355 351.285 212.355Z" fill="#161616"/>
<path d="M384.01 66.2827L5.34023 66.2827" stroke="#E5E5E5" stroke-width="1.3665"/>
<rect x="58.8477" y="258.087" width="271.655" height="54.3309" rx="13.9943" fill="#F5F5F5"/>
<rect x="58.8477" y="258.087" width="271.655" height="54.3309" rx="13.9943" stroke="#E5E5E5" stroke-width="1.64639"/>
<path d="M120.253 277.884L124.252 289.587H124.413L128.412 277.884H130.755L125.585 292.253H123.08L117.909 277.884H120.253ZM132.662 292.253V281.477H134.76V292.253H132.662ZM133.721 279.814C133.357 279.814 133.043 279.692 132.781 279.449C132.524 279.201 132.395 278.906 132.395 278.565C132.395 278.219 132.524 277.924 132.781 277.681C133.043 277.433 133.357 277.309 133.721 277.309C134.086 277.309 134.397 277.433 134.654 277.681C134.916 277.924 135.047 278.219 135.047 278.565C135.047 278.906 134.916 279.201 134.654 279.449C134.397 279.692 134.086 279.814 133.721 279.814ZM142.226 292.47C141.165 292.47 140.25 292.244 139.483 291.79C138.721 291.332 138.131 290.688 137.715 289.861C137.304 289.028 137.098 288.053 137.098 286.935C137.098 285.831 137.304 284.858 137.715 284.016C138.131 283.174 138.711 282.517 139.455 282.045C140.203 281.572 141.078 281.336 142.079 281.336C142.687 281.336 143.276 281.437 143.847 281.638C144.418 281.839 144.93 282.155 145.383 282.585C145.837 283.015 146.195 283.574 146.457 284.262C146.719 284.945 146.85 285.775 146.85 286.752V287.496H138.283V285.925H144.794C144.794 285.373 144.682 284.884 144.457 284.458C144.233 284.028 143.917 283.689 143.51 283.441C143.108 283.193 142.636 283.069 142.093 283.069C141.504 283.069 140.989 283.214 140.55 283.504C140.115 283.789 139.778 284.164 139.539 284.627C139.305 285.085 139.188 285.583 139.188 286.121V287.349C139.188 288.069 139.315 288.682 139.567 289.187C139.825 289.692 140.182 290.078 140.641 290.345C141.099 290.607 141.635 290.738 142.247 290.738C142.645 290.738 143.007 290.681 143.335 290.569C143.662 290.452 143.945 290.279 144.184 290.05C144.422 289.821 144.605 289.538 144.731 289.201L146.716 289.559C146.557 290.143 146.272 290.656 145.861 291.095C145.454 291.53 144.941 291.869 144.324 292.113C143.711 292.351 143.012 292.47 142.226 292.47ZM151.494 292.253L148.323 281.477H150.491L152.603 289.39H152.708L154.827 281.477H156.995L159.1 289.355H159.205L161.302 281.477H163.47L160.306 292.253H158.166L155.977 284.472H155.816L153.627 292.253H151.494ZM174.724 292.463C173.854 292.463 173.077 292.241 172.395 291.797C171.716 291.348 171.183 290.709 170.795 289.882C170.411 289.049 170.22 288.05 170.22 286.886C170.22 285.721 170.414 284.725 170.802 283.897C171.195 283.069 171.733 282.435 172.416 281.996C173.099 281.556 173.873 281.336 174.738 281.336C175.407 281.336 175.945 281.448 176.352 281.673C176.763 281.893 177.081 282.15 177.306 282.445C177.535 282.739 177.713 282.999 177.839 283.224H177.965V277.884H180.063V292.253H178.014V290.576H177.839C177.713 290.805 177.53 291.067 177.292 291.362C177.058 291.657 176.735 291.914 176.323 292.134C175.912 292.353 175.379 292.463 174.724 292.463ZM175.187 290.674C175.79 290.674 176.3 290.515 176.716 290.197C177.137 289.875 177.455 289.428 177.671 288.857C177.89 288.287 178 287.622 178 286.865C178 286.116 177.893 285.462 177.678 284.9C177.462 284.339 177.147 283.902 176.73 283.588C176.314 283.275 175.8 283.118 175.187 283.118C174.555 283.118 174.029 283.282 173.608 283.609C173.187 283.937 172.869 284.383 172.654 284.949C172.444 285.515 172.338 286.154 172.338 286.865C172.338 287.585 172.446 288.233 172.661 288.808C172.876 289.383 173.194 289.839 173.615 290.176C174.041 290.508 174.565 290.674 175.187 290.674ZM187.701 292.47C186.64 292.47 185.725 292.244 184.958 291.79C184.196 291.332 183.607 290.688 183.19 289.861C182.779 289.028 182.573 288.053 182.573 286.935C182.573 285.831 182.779 284.858 183.19 284.016C183.607 283.174 184.187 282.517 184.93 282.045C185.679 281.572 186.553 281.336 187.554 281.336C188.162 281.336 188.752 281.437 189.322 281.638C189.893 281.839 190.405 282.155 190.859 282.585C191.312 283.015 191.67 283.574 191.932 284.262C192.194 284.945 192.325 285.775 192.325 286.752V287.496H183.759V285.925H190.269C190.269 285.373 190.157 284.884 189.933 284.458C189.708 284.028 189.392 283.689 188.985 283.441C188.583 283.193 188.111 283.069 187.568 283.069C186.979 283.069 186.464 283.214 186.025 283.504C185.59 283.789 185.253 284.164 185.014 284.627C184.781 285.085 184.664 285.583 184.664 286.121V287.349C184.664 288.069 184.79 288.682 185.042 289.187C185.3 289.692 185.658 290.078 186.116 290.345C186.574 290.607 187.11 290.738 187.723 290.738C188.12 290.738 188.483 290.681 188.81 290.569C189.137 290.452 189.42 290.279 189.659 290.05C189.897 289.821 190.08 289.538 190.206 289.201L192.192 289.559C192.033 290.143 191.747 290.656 191.336 291.095C190.929 291.53 190.417 291.869 189.799 292.113C189.186 292.351 188.487 292.47 187.701 292.47ZM199.683 281.477V283.16H193.797V281.477H199.683ZM195.375 278.895H197.473V289.089C197.473 289.496 197.534 289.802 197.655 290.008C197.777 290.209 197.934 290.347 198.125 290.422C198.322 290.492 198.535 290.527 198.764 290.527C198.932 290.527 199.079 290.515 199.206 290.492C199.332 290.469 199.43 290.45 199.5 290.436L199.879 292.169C199.758 292.216 199.585 292.262 199.36 292.309C199.136 292.361 198.855 292.389 198.518 292.393C197.966 292.403 197.452 292.304 196.975 292.099C196.498 291.893 196.112 291.575 195.817 291.144C195.522 290.714 195.375 290.174 195.375 289.524V278.895ZM205.139 292.491C204.457 292.491 203.839 292.365 203.287 292.113C202.735 291.855 202.298 291.484 201.975 290.997C201.657 290.511 201.498 289.914 201.498 289.208C201.498 288.6 201.615 288.1 201.849 287.707C202.083 287.314 202.399 287.003 202.796 286.774C203.194 286.544 203.638 286.371 204.129 286.254C204.62 286.137 205.121 286.049 205.631 285.988C206.276 285.913 206.8 285.852 207.202 285.805C207.604 285.754 207.897 285.672 208.079 285.56C208.261 285.448 208.353 285.265 208.353 285.013V284.963C208.353 284.351 208.18 283.876 207.834 283.539C207.492 283.202 206.982 283.034 206.304 283.034C205.598 283.034 205.041 283.191 204.634 283.504C204.232 283.813 203.954 284.157 203.799 284.535L201.828 284.086C202.062 283.432 202.403 282.903 202.852 282.501C203.306 282.094 203.827 281.799 204.417 281.617C205.006 281.43 205.626 281.336 206.276 281.336C206.706 281.336 207.162 281.388 207.644 281.491C208.131 281.589 208.584 281.771 209.005 282.038C209.431 282.304 209.779 282.686 210.051 283.181C210.322 283.673 210.457 284.311 210.457 285.097V292.253H208.409V290.78H208.325C208.189 291.051 207.986 291.317 207.714 291.579C207.443 291.841 207.095 292.059 206.669 292.232C206.243 292.405 205.733 292.491 205.139 292.491ZM205.595 290.808C206.175 290.808 206.671 290.693 207.083 290.464C207.499 290.235 207.815 289.935 208.03 289.566C208.25 289.192 208.36 288.792 208.36 288.366V286.977C208.285 287.052 208.14 287.122 207.925 287.187C207.714 287.248 207.473 287.302 207.202 287.349C206.931 287.391 206.667 287.431 206.409 287.468C206.152 287.501 205.937 287.529 205.764 287.552C205.357 287.604 204.985 287.69 204.648 287.812C204.316 287.933 204.05 288.109 203.848 288.338C203.652 288.563 203.554 288.862 203.554 289.236C203.554 289.755 203.746 290.148 204.129 290.415C204.513 290.677 205.001 290.808 205.595 290.808ZM213.252 292.253V281.477H215.349V292.253H213.252ZM214.311 279.814C213.946 279.814 213.633 279.692 213.371 279.449C213.114 279.201 212.985 278.906 212.985 278.565C212.985 278.219 213.114 277.924 213.371 277.681C213.633 277.433 213.946 277.309 214.311 277.309C214.676 277.309 214.987 277.433 215.244 277.681C215.506 277.924 215.637 278.219 215.637 278.565C215.637 278.906 215.506 279.201 215.244 279.449C214.987 279.692 214.676 279.814 214.311 279.814ZM220.269 277.884V292.253H218.171V277.884H220.269ZM231.167 284.108L229.265 284.444C229.186 284.201 229.059 283.97 228.886 283.75C228.718 283.53 228.489 283.35 228.199 283.209C227.909 283.069 227.546 282.999 227.111 282.999C226.517 282.999 226.022 283.132 225.624 283.399C225.226 283.661 225.028 284 225.028 284.416C225.028 284.776 225.161 285.066 225.428 285.286C225.694 285.506 226.124 285.686 226.718 285.826L228.43 286.219C229.422 286.448 230.161 286.802 230.647 287.279C231.134 287.756 231.377 288.375 231.377 289.138C231.377 289.783 231.19 290.359 230.816 290.864C230.446 291.364 229.929 291.757 229.265 292.042C228.606 292.328 227.841 292.47 226.971 292.47C225.764 292.47 224.78 292.213 224.017 291.699C223.255 291.18 222.787 290.443 222.614 289.489L224.642 289.18C224.768 289.709 225.028 290.108 225.421 290.38C225.813 290.646 226.326 290.78 226.957 290.78C227.645 290.78 228.194 290.637 228.606 290.352C229.017 290.062 229.223 289.709 229.223 289.292C229.223 288.955 229.097 288.672 228.844 288.443C228.596 288.214 228.215 288.041 227.701 287.924L225.877 287.524C224.871 287.295 224.127 286.93 223.646 286.43C223.168 285.929 222.93 285.296 222.93 284.528C222.93 283.892 223.108 283.336 223.463 282.859C223.819 282.382 224.31 282.01 224.936 281.743C225.563 281.472 226.281 281.336 227.09 281.336C228.255 281.336 229.172 281.589 229.841 282.094C230.509 282.594 230.951 283.266 231.167 284.108Z" fill="#8D8D8D"/>
<path d="M255.391 278.755C255.391 278.456 255.733 278.291 255.965 278.458L256.009 278.496L259.528 282.015L261.69 284.178C262.282 284.769 262.277 285.738 261.694 286.313L256.005 292.003C255.776 292.232 255.391 292.068 255.391 291.75V278.755Z" stroke="#8D8D8D" stroke-width="1.64639"/>
</g>
<rect x="6.16328" y="1.25142" width="377.024" height="345.742" rx="12.3479" stroke="#E5E5E5" stroke-width="1.64639"/>
</g>
<defs>
<filter id="filter0_d_894_32008" x="0.400914" y="-2.86456" width="388.549" height="357.267" filterUnits="userSpaceOnUse" color-interpolation-filters="sRGB">
<feFlood flood-opacity="0" result="BackgroundImageFix"/>
<feColorMatrix in="SourceAlpha" type="matrix" values="0 0 0 0 0 0 0 0 0 0 0 0 0 0 0 0 0 0 127 0" result="hardAlpha"/>
<feOffset dy="1.64639"/>
<feGaussianBlur stdDeviation="2.46959"/>
<feComposite in2="hardAlpha" operator="out"/>
<feColorMatrix type="matrix" values="0 0 0 0 0.901961 0 0 0 0 0.917647 0 0 0 0 0.933333 0 0 0 0.05 0"/>
<feBlend mode="normal" in2="BackgroundImageFix" result="effect1_dropShadow_894_32008"/>
<feBlend mode="normal" in="SourceGraphic" in2="effect1_dropShadow_894_32008" result="shape"/>
</filter>
<clipPath id="clip0_894_32008">
<rect x="5.34009" y="0.428223" width="378.67" height="347.389" rx="13.1711" fill="white"/>
</clipPath>
</defs>
</svg>
