<svg width="32" height="33" viewBox="0 0 32 33" fill="none" xmlns="http://www.w3.org/2000/svg">
<rect y="0.5" width="32" height="32" rx="16" fill="#1A1A1A"/>
<path d="M9 23.5002V14.8082C9 14.5522 9.05733 14.3099 9.172 14.0812C9.28667 13.8526 9.44467 13.6642 9.646 13.5162L15.031 9.43823C15.313 9.2229 15.635 9.11523 15.997 9.11523C16.359 9.11523 16.683 9.2229 16.969 9.43823L22.354 13.5152C22.556 13.6632 22.714 13.8519 22.828 14.0812C22.9427 14.3099 23 14.5522 23 14.8082V23.5002C23 23.7682 22.9003 24.0019 22.701 24.2012C22.5017 24.4006 22.268 24.5002 22 24.5002H18.616C18.3867 24.5002 18.1947 24.4229 18.04 24.2682C17.8853 24.1129 17.808 23.9209 17.808 23.6922V18.9232C17.808 18.6946 17.7307 18.5029 17.576 18.3482C17.4207 18.1929 17.2287 18.1152 17 18.1152H15C14.7713 18.1152 14.5797 18.1929 14.425 18.3482C14.2697 18.5029 14.192 18.6946 14.192 18.9232V23.6932C14.192 23.9219 14.1147 24.1136 13.96 24.2682C13.8053 24.4229 13.6137 24.5002 13.385 24.5002H10C9.732 24.5002 9.49833 24.4006 9.299 24.2012C9.09967 24.0019 9 23.7682 9 23.5002Z" fill="white"/>
</svg>
